<svg width="1770" height="131" viewBox="0 0 1770 131" fill="none" xmlns="http://www.w3.org/2000/svg">
<g clip-path="url(#clip0_1_287)">
<path d="M95.6012 30.3448C98.7913 27.1466 98.7913 21.9526 95.6012 18.7544C92.411 15.5562 87.2303 15.5562 84.0402 18.7544L2.37354 100.629C-0.816569 103.828 -0.816569 109.022 2.37354 112.22C5.56364 115.418 10.7444 115.418 13.9345 112.22L95.6012 30.3448ZM32.6668 32.7499C32.6668 28.407 30.9459 24.2419 27.8828 21.171C24.8197 18.1001 20.6653 16.3749 16.3334 16.3749C12.0016 16.3749 7.84712 18.1001 4.78402 21.171C1.72093 24.2419 9.76082e-05 28.407 9.76082e-05 32.7499C9.76082e-05 37.0928 1.72093 41.2579 4.78402 44.3288C7.84712 47.3997 12.0016 49.1249 16.3334 49.1249C20.6653 49.1249 24.8197 47.3997 27.8828 44.3288C30.9459 41.2579 32.6668 37.0928 32.6668 32.7499ZM98.0001 98.2499C98.0001 93.907 96.2793 89.7419 93.2162 86.671C90.1531 83.6001 85.9986 81.8749 81.6668 81.8749C77.3349 81.8749 73.1805 83.6001 70.1174 86.671C67.0543 89.7419 65.3334 93.907 65.3334 98.2499C65.3334 102.593 67.0543 106.758 70.1174 109.829C73.1805 112.9 77.3349 114.625 81.6668 114.625C85.9986 114.625 90.1531 112.9 93.2162 109.829C96.2793 106.758 98.0001 102.593 98.0001 98.2499Z" fill="#477CE2" fill-opacity="0.07"/>
</g>
<g clip-path="url(#clip1_1_287)">
<path d="M247.601 30.3448C250.791 27.1466 250.791 21.9526 247.601 18.7544C244.411 15.5562 239.23 15.5562 236.04 18.7544L154.374 100.629C151.183 103.828 151.183 109.022 154.374 112.22C157.564 115.418 162.744 115.418 165.934 112.22L247.601 30.3448ZM184.667 32.7499C184.667 28.407 182.946 24.2419 179.883 21.171C176.82 18.1001 172.665 16.3749 168.333 16.3749C164.002 16.3749 159.847 18.1001 156.784 21.171C153.721 24.2419 152 28.407 152 32.7499C152 37.0928 153.721 41.2579 156.784 44.3288C159.847 47.3997 164.002 49.1249 168.333 49.1249C172.665 49.1249 176.82 47.3997 179.883 44.3288C182.946 41.2579 184.667 37.0928 184.667 32.7499ZM250 98.2499C250 93.907 248.279 89.7419 245.216 86.671C242.153 83.6001 237.999 81.8749 233.667 81.8749C229.335 81.8749 225.18 83.6001 222.117 86.671C219.054 89.7419 217.333 93.907 217.333 98.2499C217.333 102.593 219.054 106.758 222.117 109.829C225.18 112.9 229.335 114.625 233.667 114.625C237.999 114.625 242.153 112.9 245.216 109.829C248.279 106.758 250 102.593 250 98.2499Z" fill="#477CE2" fill-opacity="0.07"/>
</g>
<g clip-path="url(#clip2_1_287)">
<path d="M399.601 30.3448C402.791 27.1466 402.791 21.9526 399.601 18.7544C396.411 15.5562 391.23 15.5562 388.04 18.7544L306.374 100.629C303.183 103.828 303.183 109.022 306.374 112.22C309.564 115.418 314.744 115.418 317.934 112.22L399.601 30.3448ZM336.667 32.7499C336.667 28.407 334.946 24.2419 331.883 21.171C328.82 18.1001 324.665 16.3749 320.333 16.3749C316.002 16.3749 311.847 18.1001 308.784 21.171C305.721 24.2419 304 28.407 304 32.7499C304 37.0928 305.721 41.2579 308.784 44.3288C311.847 47.3997 316.002 49.1249 320.333 49.1249C324.665 49.1249 328.82 47.3997 331.883 44.3288C334.946 41.2579 336.667 37.0928 336.667 32.7499ZM402 98.2499C402 93.907 400.279 89.7419 397.216 86.671C394.153 83.6001 389.999 81.8749 385.667 81.8749C381.335 81.8749 377.18 83.6001 374.117 86.671C371.054 89.7419 369.333 93.907 369.333 98.2499C369.333 102.593 371.054 106.758 374.117 109.829C377.18 112.9 381.335 114.625 385.667 114.625C389.999 114.625 394.153 112.9 397.216 109.829C400.279 106.758 402 102.593 402 98.2499Z" fill="#477CE2" fill-opacity="0.07"/>
</g>
<g clip-path="url(#clip3_1_287)">
<path d="M551.601 30.3448C554.791 27.1466 554.791 21.9526 551.601 18.7544C548.411 15.5562 543.23 15.5562 540.04 18.7544L458.374 100.629C455.183 103.828 455.183 109.022 458.374 112.22C461.564 115.418 466.744 115.418 469.934 112.22L551.601 30.3448ZM488.667 32.7499C488.667 28.407 486.946 24.2419 483.883 21.171C480.82 18.1001 476.665 16.3749 472.333 16.3749C468.002 16.3749 463.847 18.1001 460.784 21.171C457.721 24.2419 456 28.407 456 32.7499C456 37.0928 457.721 41.2579 460.784 44.3288C463.847 47.3997 468.002 49.1249 472.333 49.1249C476.665 49.1249 480.82 47.3997 483.883 44.3288C486.946 41.2579 488.667 37.0928 488.667 32.7499ZM554 98.2499C554 93.907 552.279 89.7419 549.216 86.671C546.153 83.6001 541.999 81.8749 537.667 81.8749C533.335 81.8749 529.18 83.6001 526.117 86.671C523.054 89.7419 521.333 93.907 521.333 98.2499C521.333 102.593 523.054 106.758 526.117 109.829C529.18 112.9 533.335 114.625 537.667 114.625C541.999 114.625 546.153 112.9 549.216 109.829C552.279 106.758 554 102.593 554 98.2499Z" fill="#477CE2" fill-opacity="0.07"/>
</g>
<g clip-path="url(#clip4_1_287)">
<path d="M703.601 30.3448C706.791 27.1466 706.791 21.9526 703.601 18.7544C700.411 15.5562 695.23 15.5562 692.04 18.7544L610.374 100.629C607.183 103.828 607.183 109.022 610.374 112.22C613.564 115.418 618.744 115.418 621.934 112.22L703.601 30.3448ZM640.667 32.7499C640.667 28.407 638.946 24.2419 635.883 21.171C632.82 18.1001 628.665 16.3749 624.333 16.3749C620.002 16.3749 615.847 18.1001 612.784 21.171C609.721 24.2419 608 28.407 608 32.7499C608 37.0928 609.721 41.2579 612.784 44.3288C615.847 47.3997 620.002 49.1249 624.333 49.1249C628.665 49.1249 632.82 47.3997 635.883 44.3288C638.946 41.2579 640.667 37.0928 640.667 32.7499ZM706 98.2499C706 93.907 704.279 89.7419 701.216 86.671C698.153 83.6001 693.999 81.8749 689.667 81.8749C685.335 81.8749 681.18 83.6001 678.117 86.671C675.054 89.7419 673.333 93.907 673.333 98.2499C673.333 102.593 675.054 106.758 678.117 109.829C681.18 112.9 685.335 114.625 689.667 114.625C693.999 114.625 698.153 112.9 701.216 109.829C704.279 106.758 706 102.593 706 98.2499Z" fill="#477CE2" fill-opacity="0.07"/>
</g>
<g clip-path="url(#clip5_1_287)">
<path d="M855.601 30.3448C858.791 27.1466 858.791 21.9526 855.601 18.7544C852.411 15.5562 847.23 15.5562 844.04 18.7544L762.374 100.629C759.183 103.828 759.183 109.022 762.374 112.22C765.564 115.418 770.744 115.418 773.934 112.22L855.601 30.3448ZM792.667 32.7499C792.667 28.407 790.946 24.2419 787.883 21.171C784.82 18.1001 780.665 16.3749 776.333 16.3749C772.002 16.3749 767.847 18.1001 764.784 21.171C761.721 24.2419 760 28.407 760 32.7499C760 37.0928 761.721 41.2579 764.784 44.3288C767.847 47.3997 772.002 49.1249 776.333 49.1249C780.665 49.1249 784.82 47.3997 787.883 44.3288C790.946 41.2579 792.667 37.0928 792.667 32.7499ZM858 98.2499C858 93.907 856.279 89.7419 853.216 86.671C850.153 83.6001 845.999 81.8749 841.667 81.8749C837.335 81.8749 833.18 83.6001 830.117 86.671C827.054 89.7419 825.333 93.907 825.333 98.2499C825.333 102.593 827.054 106.758 830.117 109.829C833.18 112.9 837.335 114.625 841.667 114.625C845.999 114.625 850.153 112.9 853.216 109.829C856.279 106.758 858 102.593 858 98.2499Z" fill="#477CE2" fill-opacity="0.07"/>
</g>
<g clip-path="url(#clip6_1_287)">
<path d="M1007.6 30.3448C1010.79 27.1466 1010.79 21.9526 1007.6 18.7544C1004.41 15.5562 999.23 15.5562 996.04 18.7544L914.374 100.629C911.183 103.828 911.183 109.022 914.374 112.22C917.564 115.418 922.744 115.418 925.934 112.22L1007.6 30.3448ZM944.667 32.7499C944.667 28.407 942.946 24.2419 939.883 21.171C936.82 18.1001 932.665 16.3749 928.333 16.3749C924.002 16.3749 919.847 18.1001 916.784 21.171C913.721 24.2419 912 28.407 912 32.7499C912 37.0928 913.721 41.2579 916.784 44.3288C919.847 47.3997 924.002 49.1249 928.333 49.1249C932.665 49.1249 936.82 47.3997 939.883 44.3288C942.946 41.2579 944.667 37.0928 944.667 32.7499ZM1010 98.2499C1010 93.907 1008.28 89.7419 1005.22 86.671C1002.15 83.6001 997.999 81.8749 993.667 81.8749C989.335 81.8749 985.18 83.6001 982.117 86.671C979.054 89.7419 977.333 93.907 977.333 98.2499C977.333 102.593 979.054 106.758 982.117 109.829C985.18 112.9 989.335 114.625 993.667 114.625C997.999 114.625 1002.15 112.9 1005.22 109.829C1008.28 106.758 1010 102.593 1010 98.2499Z" fill="#477CE2" fill-opacity="0.07"/>
</g>
<g clip-path="url(#clip7_1_287)">
<path d="M1159.6 30.3448C1162.79 27.1466 1162.79 21.9526 1159.6 18.7544C1156.41 15.5562 1151.23 15.5562 1148.04 18.7544L1066.37 100.629C1063.18 103.828 1063.18 109.022 1066.37 112.22C1069.56 115.418 1074.74 115.418 1077.93 112.22L1159.6 30.3448ZM1096.67 32.7499C1096.67 28.407 1094.95 24.2419 1091.88 21.171C1088.82 18.1001 1084.67 16.3749 1080.33 16.3749C1076 16.3749 1071.85 18.1001 1068.78 21.171C1065.72 24.2419 1064 28.407 1064 32.7499C1064 37.0928 1065.72 41.2579 1068.78 44.3288C1071.85 47.3997 1076 49.1249 1080.33 49.1249C1084.67 49.1249 1088.82 47.3997 1091.88 44.3288C1094.95 41.2579 1096.67 37.0928 1096.67 32.7499ZM1162 98.2499C1162 93.907 1160.28 89.7419 1157.22 86.671C1154.15 83.6001 1150 81.8749 1145.67 81.8749C1141.33 81.8749 1137.18 83.6001 1134.12 86.671C1131.05 89.7419 1129.33 93.907 1129.33 98.2499C1129.33 102.593 1131.05 106.758 1134.12 109.829C1137.18 112.9 1141.33 114.625 1145.67 114.625C1150 114.625 1154.15 112.9 1157.22 109.829C1160.28 106.758 1162 102.593 1162 98.2499Z" fill="#477CE2" fill-opacity="0.07"/>
</g>
<g clip-path="url(#clip8_1_287)">
<path d="M1311.6 30.3448C1314.79 27.1466 1314.79 21.9526 1311.6 18.7544C1308.41 15.5562 1303.23 15.5562 1300.04 18.7544L1218.37 100.629C1215.18 103.828 1215.18 109.022 1218.37 112.22C1221.56 115.418 1226.74 115.418 1229.93 112.22L1311.6 30.3448ZM1248.67 32.7499C1248.67 28.407 1246.95 24.2419 1243.88 21.171C1240.82 18.1001 1236.67 16.3749 1232.33 16.3749C1228 16.3749 1223.85 18.1001 1220.78 21.171C1217.72 24.2419 1216 28.407 1216 32.7499C1216 37.0928 1217.72 41.2579 1220.78 44.3288C1223.85 47.3997 1228 49.1249 1232.33 49.1249C1236.67 49.1249 1240.82 47.3997 1243.88 44.3288C1246.95 41.2579 1248.67 37.0928 1248.67 32.7499ZM1314 98.2499C1314 93.907 1312.28 89.7419 1309.22 86.671C1306.15 83.6001 1302 81.8749 1297.67 81.8749C1293.33 81.8749 1289.18 83.6001 1286.12 86.671C1283.05 89.7419 1281.33 93.907 1281.33 98.2499C1281.33 102.593 1283.05 106.758 1286.12 109.829C1289.18 112.9 1293.33 114.625 1297.67 114.625C1302 114.625 1306.15 112.9 1309.22 109.829C1312.28 106.758 1314 102.593 1314 98.2499Z" fill="#477CE2" fill-opacity="0.07"/>
</g>
<g clip-path="url(#clip9_1_287)">
<path d="M1463.6 30.3448C1466.79 27.1466 1466.79 21.9526 1463.6 18.7544C1460.41 15.5562 1455.23 15.5562 1452.04 18.7544L1370.37 100.629C1367.18 103.828 1367.18 109.022 1370.37 112.22C1373.56 115.418 1378.74 115.418 1381.93 112.22L1463.6 30.3448ZM1400.67 32.7499C1400.67 28.407 1398.95 24.2419 1395.88 21.171C1392.82 18.1001 1388.67 16.3749 1384.33 16.3749C1380 16.3749 1375.85 18.1001 1372.78 21.171C1369.72 24.2419 1368 28.407 1368 32.7499C1368 37.0928 1369.72 41.2579 1372.78 44.3288C1375.85 47.3997 1380 49.1249 1384.33 49.1249C1388.67 49.1249 1392.82 47.3997 1395.88 44.3288C1398.95 41.2579 1400.67 37.0928 1400.67 32.7499ZM1466 98.2499C1466 93.907 1464.28 89.7419 1461.22 86.671C1458.15 83.6001 1454 81.8749 1449.67 81.8749C1445.33 81.8749 1441.18 83.6001 1438.12 86.671C1435.05 89.7419 1433.33 93.907 1433.33 98.2499C1433.33 102.593 1435.05 106.758 1438.12 109.829C1441.18 112.9 1445.33 114.625 1449.67 114.625C1454 114.625 1458.15 112.9 1461.22 109.829C1464.28 106.758 1466 102.593 1466 98.2499Z" fill="#477CE2" fill-opacity="0.07"/>
</g>
<g clip-path="url(#clip10_1_287)">
<path d="M1615.6 30.3448C1618.79 27.1466 1618.79 21.9526 1615.6 18.7544C1612.41 15.5562 1607.23 15.5562 1604.04 18.7544L1522.37 100.629C1519.18 103.828 1519.18 109.022 1522.37 112.22C1525.56 115.418 1530.74 115.418 1533.93 112.22L1615.6 30.3448ZM1552.67 32.7499C1552.67 28.407 1550.95 24.2419 1547.88 21.171C1544.82 18.1001 1540.67 16.3749 1536.33 16.3749C1532 16.3749 1527.85 18.1001 1524.78 21.171C1521.72 24.2419 1520 28.407 1520 32.7499C1520 37.0928 1521.72 41.2579 1524.78 44.3288C1527.85 47.3997 1532 49.1249 1536.33 49.1249C1540.67 49.1249 1544.82 47.3997 1547.88 44.3288C1550.95 41.2579 1552.67 37.0928 1552.67 32.7499ZM1618 98.2499C1618 93.907 1616.28 89.7419 1613.22 86.671C1610.15 83.6001 1606 81.8749 1601.67 81.8749C1597.33 81.8749 1593.18 83.6001 1590.12 86.671C1587.05 89.7419 1585.33 93.907 1585.33 98.2499C1585.33 102.593 1587.05 106.758 1590.12 109.829C1593.18 112.9 1597.33 114.625 1601.67 114.625C1606 114.625 1610.15 112.9 1613.22 109.829C1616.28 106.758 1618 102.593 1618 98.2499Z" fill="#477CE2" fill-opacity="0.07"/>
</g>
<g clip-path="url(#clip11_1_287)">
<path d="M1767.6 30.3448C1770.79 27.1466 1770.79 21.9526 1767.6 18.7544C1764.41 15.5562 1759.23 15.5562 1756.04 18.7544L1674.37 100.629C1671.18 103.828 1671.18 109.022 1674.37 112.22C1677.56 115.418 1682.74 115.418 1685.93 112.22L1767.6 30.3448ZM1704.67 32.7499C1704.67 28.407 1702.95 24.2419 1699.88 21.171C1696.82 18.1001 1692.67 16.3749 1688.33 16.3749C1684 16.3749 1679.85 18.1001 1676.78 21.171C1673.72 24.2419 1672 28.407 1672 32.7499C1672 37.0928 1673.72 41.2579 1676.78 44.3288C1679.85 47.3997 1684 49.1249 1688.33 49.1249C1692.67 49.1249 1696.82 47.3997 1699.88 44.3288C1702.95 41.2579 1704.67 37.0928 1704.67 32.7499ZM1770 98.2499C1770 93.907 1768.28 89.7419 1765.22 86.671C1762.15 83.6001 1758 81.8749 1753.67 81.8749C1749.33 81.8749 1745.18 83.6001 1742.12 86.671C1739.05 89.7419 1737.33 93.907 1737.33 98.2499C1737.33 102.593 1739.05 106.758 1742.12 109.829C1745.18 112.9 1749.33 114.625 1753.67 114.625C1758 114.625 1762.15 112.9 1765.22 109.829C1768.28 106.758 1770 102.593 1770 98.2499Z" fill="#477CE2" fill-opacity="0.07"/>
</g>
<defs>
<clipPath id="clip0_1_287">
<rect width="98" height="131" fill="white"/>
</clipPath>
<clipPath id="clip1_1_287">
<rect width="98" height="131" fill="white" transform="translate(152)"/>
</clipPath>
<clipPath id="clip2_1_287">
<rect width="98" height="131" fill="white" transform="translate(304)"/>
</clipPath>
<clipPath id="clip3_1_287">
<rect width="98" height="131" fill="white" transform="translate(456)"/>
</clipPath>
<clipPath id="clip4_1_287">
<rect width="98" height="131" fill="white" transform="translate(608)"/>
</clipPath>
<clipPath id="clip5_1_287">
<rect width="98" height="131" fill="white" transform="translate(760)"/>
</clipPath>
<clipPath id="clip6_1_287">
<rect width="98" height="131" fill="white" transform="translate(912)"/>
</clipPath>
<clipPath id="clip7_1_287">
<rect width="98" height="131" fill="white" transform="translate(1064)"/>
</clipPath>
<clipPath id="clip8_1_287">
<rect width="98" height="131" fill="white" transform="translate(1216)"/>
</clipPath>
<clipPath id="clip9_1_287">
<rect width="98" height="131" fill="white" transform="translate(1368)"/>
</clipPath>
<clipPath id="clip10_1_287">
<rect width="98" height="131" fill="white" transform="translate(1520)"/>
</clipPath>
<clipPath id="clip11_1_287">
<rect width="98" height="131" fill="white" transform="translate(1672)"/>
</clipPath>
</defs>
</svg>
