<svg width="87" height="87" viewBox="0 0 87 87" fill="none" xmlns="http://www.w3.org/2000/svg">
<path fill-rule="evenodd" clip-rule="evenodd" d="M42.9971 28.4678C42.4587 32.0592 39.5136 32.3106 37.7543 28.8988C30.8234 16.5455 20.553 23.9792 31.5058 34.2857C33.4448 35.8297 33.1221 37.0506 30.7521 36.9071C19.0089 32.6338 21.3076 39.7799 33.3378 42.725C35.1333 42.4736 36.4621 43.5866 34.9537 44.6996C33.3739 47.0701 42.5309 48.6859 45.0444 45.0594C55.0639 47.5011 60.4864 42.4014 54.7042 42.1861C52.2624 41.8268 53.1606 39.9596 55.0278 39.7443C67.0932 35.6506 66.9858 26.0621 55.2792 33.2444C52.4064 35.1121 50.3239 34.1783 51.5804 31.6643C59.3012 19.9929 45.9774 13.0263 42.9971 28.4678ZM46.1936 46.4233C43.4282 49.1526 30.8234 48.3267 31.7933 43.6579C17.3931 38.9535 16.4236 29.1859 27.52 33.7107C16.2083 19.7053 30.321 10.6919 39.8733 26.1695C41.992 9.04 62.3893 12.4513 56.2126 29.6169C67.9558 22.4708 72.4444 32.4541 58.0085 40.5698C65.1181 40.7494 54.525 49.0443 46.1936 46.4233Z" fill="black"/>
<path fill-rule="evenodd" clip-rule="evenodd" d="M57.9362 56.6934H55.2421V63.3016C54.2008 68.2569 48.4913 67.3592 48.0964 63.3016L48.0603 56.6221H45.1161L45.1513 63.0502C45.3675 68.6875 56.607 69.9806 57.9362 63.6604V56.6934ZM7.3374 67.4671H10.1746V60.895C10.3181 56.2624 17.3925 56.3711 17.1772 61.2186V67.5745H20.1579V60.9672C18.7935 54.7901 9.09766 54.7901 7.37396 60.2126L7.3374 67.4671ZM32.0085 67.6828H34.8096V61.4335C34.3429 53.5692 18.4342 55.2933 22.959 65.3123C24.6466 68.0416 28.8482 68.5801 31.2543 66.8921V65.8508C28.7051 66.4254 26.8018 67.0356 25.4008 64.0188C22.9229 56.8008 32.0803 55.2933 31.9363 61.4696L32.0085 67.6828ZM76.8612 68.113H79.6618V61.8645C79.1956 54.0002 63.2865 55.7239 67.8112 65.7434C69.4993 68.4727 73.7009 68.975 76.1066 67.3231V66.2818C73.5574 66.8564 71.654 67.4666 70.253 64.4498C67.7751 57.2319 76.9325 55.7235 76.7886 61.9006L76.8612 68.113ZM66.8056 56.8374V57.8069C64.6514 57.6272 63.5027 58.5254 63.3587 60.5001L63.1791 67.8981H60.5572V60.3927C61.2757 57.161 63.6462 56.0836 66.8056 56.8374ZM40.4117 56.5138H43.0331L42.9609 58.3819H40.5552V65.8513C40.6988 67.862 41.9197 68.437 43.6077 68.3292V69.3343C40.3756 69.7301 38.0056 68.9042 37.5028 65.3128V51.6667H40.4117V56.5138Z" fill="black"/>
</svg>
